# xmcd CD database file
#
# Track frame offsets:
#	150
#	12882
#	22378
#	36543
#	63023
#	91183
#	106941
#	141994
#	174035
#	189716
#	202534
#	217819
#	229625
#	243857
#	258052
#	274029
#	292165
#
# Disc length: 4094 seconds
#
# Revision: 0
# Processed by: cddbd v1.5.2PL0 Copyright (c) Steve Scherf et al.
# Submitted via: CDex 1.51
#
DISCID=e20ffc11
DTITLE=Various Artist - Mellow Jazz Disc 2
DYEAR=1900
DGENRE=Jazz
TTITLE0=What a diference a day makes - Sarah Vaughn
TTITLE1=Jeepers Creepers - Tony Bennet and Count Basie
TTITLE2=Sweet Lorraine - Nat King Cole
TTITLE3=Autumn Leaves - Dee Harrington
TTITLE4='Round Midnight - Miles Davis
TTITLE5=Watermelon man - Quincy Jones
TTITLE6=The band wore blue shirts - Sundown park
TTITLE7=Naima - John Coltrane
TTITLE8=Fly me to the moon - Judy Garland
TTITLE9=Don't put your dreams in one basket - Ray Charles
TTITLE10=Summertime - Jazz Culture
TTITLE11=Work Song - Nina Simone
TTITLE12=September in the rain - Peggy Lee
TTITLE13=Perdido - Duke Ellington
TTITLE14=The look of love - Jazz Culture
TTITLE15=Smile - Zoe Nicholas
TTITLE16=Georgia on my mind - Billie Holiday
EXTD=
EXTT0=
EXTT1=
EXTT2=
EXTT3=
EXTT4=
EXTT5=
EXTT6=
EXTT7=
EXTT8=
EXTT9=
EXTT10=
EXTT11=
EXTT12=
EXTT13=
EXTT14=
EXTT15=
EXTT16=
PLAYORDER=
